<svg xmlns="http://www.w3.org/2000/svg" width="24" height="24" viewBox="0 0 32 32" fill="none">
<path d="M12.772 8.41159e-07C10.773 0.00106906 8.80217 0.470984 7.01785 1.37198C5.23353 2.27297 3.68552 3.57991 2.49822 5.18775C1.31093 6.79559 0.517481 8.65949 0.18164 10.6296C-0.154201 12.5998 -0.0230626 14.6212 0.564515 16.5315C1.15209 18.4418 2.17972 20.1876 3.56481 21.6286C4.94989 23.0696 6.6538 24.1657 8.53958 24.8287C10.4254 25.4917 12.4404 25.7031 14.4228 25.446C16.4051 25.1889 18.2995 24.4704 19.9537 23.3483L27.851 31.2376C28.0704 31.4729 28.3349 31.6617 28.6288 31.7926C28.9227 31.9236 29.24 31.994 29.5617 31.9996C29.8834 32.0053 30.203 31.9461 30.5013 31.8257C30.7997 31.7052 31.0707 31.5258 31.2982 31.2984C31.5257 31.0709 31.7051 30.7999 31.8256 30.5017C31.9461 30.2034 32.0053 29.8839 31.9996 29.5622C31.994 29.2406 31.9235 28.9234 31.7926 28.6295C31.6616 28.3357 31.4728 28.0712 31.2374 27.8519L23.3465 19.9563C24.6519 18.0353 25.409 15.7949 25.5363 13.476C25.6635 11.1571 25.1562 8.84737 24.0687 6.79516C22.9813 4.74296 21.3549 3.0259 19.3645 1.82863C17.3741 0.631361 15.0949 -0.000841757 12.772 8.41159e-07ZM4.78523 12.7761C4.78523 10.6583 5.62669 8.6273 7.1245 7.12981C8.62231 5.63232 10.6538 4.79104 12.772 4.79104C14.8902 4.79104 16.9217 5.63232 18.4195 7.12981C19.9173 8.6273 20.7588 10.6583 20.7588 12.7761C20.7588 14.8939 19.9173 16.9249 18.4195 18.4224C16.9217 19.9199 14.8902 20.7612 12.772 20.7612C10.6538 20.7612 8.62231 19.9199 7.1245 18.4224C5.62669 16.9249 4.78523 14.8939 4.78523 12.7761Z" fill="#F8971D"/>
</svg>